<?xml version="1.0" encoding="utf-8"?>
<!-- Generator: Adobe Illustrator 24.1.1, SVG Export Plug-In . SVG Version: 6.00 Build 0)  -->
<svg version="1.1" id="Layer_1" xmlns="http://www.w3.org/2000/svg" xmlns:xlink="http://www.w3.org/1999/xlink" x="0px" y="0px"
	 viewBox="0 0 5040 2088" style="enable-background:new 0 0 5040 2088;" xml:space="preserve">
<style type="text/css">
	.st0{fill:#FFFFFF;}
</style>
<g>
	<path class="st0" d="M1842.06,1018.27c-45.51,0-88.36-8.62-128.56-25.85c-40.21-17.23-75.33-40.75-105.37-70.58
		c-30.05-29.82-54.12-64.83-72.23-105.04c-18.12-40.19-28.06-83.27-29.82-129.22V579.57h-62.29V420.53h62.29V138.89h159.7v281.64
		h235.92v159.04h-235.92v98.31c0,25.24,4.64,48.95,13.92,71.08c9.28,22.14,21.87,41.29,37.77,57.46c15.9,16.16,34.56,29,55.99,38.53
		c21.42,9.53,44.29,14.28,68.59,14.28V1018.27z"/>
	<path class="st0" d="M2810.24,706.14c-0.89,42.86-8.73,82.29-23.52,118.29c-14.81,36.01-35.45,67.93-61.96,95.76
		c-28.72,30.48-62.41,54.45-101.06,71.9c-38.67,17.46-80.52,26.18-125.58,26.18h-225.31c-45.51-0.88-87.37-10.05-125.58-27.5
		c-38.22-17.45-71.9-40.97-101.06-70.58c-25.63-27.83-46.17-59.75-61.63-95.76c-15.47-36-23.2-75.43-23.2-118.29V420.53h158.38
		v283.63c0,21.65,4.2,42.31,12.63,61.96c8.43,19.66,20.73,36.78,36.91,51.36c16.17,14.58,35.91,25.84,59.19,33.8
		c23.28,7.95,49.76,11.05,79.47,9.28V420.53h158.38v440.02c28.37,1.77,53.86-1.33,76.48-9.28c22.61-7.95,41.89-19.22,57.86-33.8
		c15.97-14.58,28.27-31.7,36.91-51.36c8.65-19.65,12.98-40.31,12.98-61.96V420.53h159.7V706.14z"/>
	<path class="st0" d="M3235.38,382.76c45.55,0,88.55,8.84,129.02,26.51c40.46,17.68,75.62,41.86,105.47,72.56
		c29.85,30.71,53.51,66.6,70.98,107.69c17.47,41.09,26.21,85.05,26.21,131.87c0,47.28-8.74,91.45-26.21,132.54
		c-17.47,41.09-41.13,76.98-70.98,107.69c-29.85,30.71-65.01,54.9-105.47,72.56c-40.47,17.66-83.47,26.51-129.02,26.51
		c-45.99,0-89.12-8.84-129.36-26.51c-40.24-17.67-75.5-41.85-105.8-72.56c-30.3-30.7-54.17-66.6-71.64-107.69
		c-17.47-41.09-26.2-85.26-26.2-132.54c0-46.82,8.73-90.79,26.2-131.87c17.47-41.09,41.34-76.98,71.64-107.69
		c30.3-30.7,65.56-54.89,105.8-72.56C3146.26,391.6,3189.39,382.76,3235.38,382.76z M3234.72,541.8c-23.91,0-46.38,4.73-67.39,14.19
		c-21.02,9.46-39.39,22.34-55.11,38.63c-15.72,16.29-28.22,35.32-37.52,57.1c-9.29,21.79-13.93,45.01-13.93,69.66
		c0,25.1,4.64,48.65,13.93,70.65c9.3,22.01,21.8,41.04,37.52,57.11c15.72,16.07,34.08,28.83,55.11,38.29
		c21.02,9.46,43.49,14.2,67.39,14.2c23.9,0,46.37-4.73,67.39-14.2c21.02-9.46,39.5-22.22,55.44-38.29
		c15.93-16.07,28.44-35.1,37.51-57.11c9.07-22,13.62-45.55,13.62-70.65c0-24.64-4.55-47.87-13.62-69.66
		c-9.07-21.78-21.58-40.82-37.51-57.1c-15.93-16.29-34.42-29.17-55.44-38.63C3281.08,546.53,3258.61,541.8,3234.72,541.8z"/>
	<path class="st0" d="M1367.54,1949.11h-158.38v-282.3c0-21.64-4.1-41.97-12.29-60.97c-8.2-18.99-19.38-35.45-33.55-49.37
		c-14.17-13.92-30.66-24.95-49.48-33.13c-18.82-8.17-39.08-12.48-60.78-12.92H928.85v438.7H770.47v-438.7H709.5v-159.04h60.97
		v-281.64h158.38v281.64h123.92c41.52,0.44,80.73,8.28,117.63,23.53c36.88,15.24,69.47,36.01,97.74,62.29
		c28.27,26.29,51.25,57.32,68.92,93.11c17.66,35.79,27.83,74.45,30.48,115.97V1949.11z"/>
	<path class="st0" d="M2156.16,1425.59c-1.77,42.41-11.16,82.07-28.16,118.95c-17.01,36.89-39.76,68.92-68.26,96.09
		c-28.5,27.17-61.53,48.49-99.07,63.95c-37.56,15.47-77.53,23.2-119.94,23.2h-64.94c14.13,19.88,31.81,35.45,53.01,46.72
		c21.21,11.27,45.06,16.9,71.57,16.9h196.15v157.72h-197.48c-35.35-0.43-68.92-6.3-100.73-17.56
		c-31.81-11.26-60.64-26.72-86.48-46.39c-25.85-19.65-48.27-42.85-67.26-69.58c-19-26.72-33.36-56-43.08-87.8h-59.64v-160.37h60.97
		v-56.99h-142.48v-159.04h695.82V1425.59z M1840.72,1567.41c25.18,0,48.48-4.91,69.91-14.74c21.42-9.83,39.2-23.91,53.35-42.26
		h-203.44v56.99H1840.72z"/>
	<path class="st0" d="M2895.74,1725.79h-60.97v223.32h-585.15c-6.19-52.57-2.98-101.39,9.61-146.45
		c12.59-45.06,32.8-84.49,60.64-118.29c27.83-33.8,62.39-60.96,103.71-81.51c41.3-20.54,87.58-32.57,138.83-36.11h97.41
		c-15.02-23.86-35.24-43.29-60.64-58.32c-25.41-15.01-53.57-22.53-84.49-22.53c-25.63,0-49.59,5.96-71.9,17.89
		c-22.31,11.93-41.65,26.73-57.98,44.4l-113.98-111.33c14.13-16.34,30.37-31.36,48.71-45.06c18.33-13.69,38.1-25.28,59.31-34.79
		c21.21-9.49,43.29-16.9,66.27-22.2c22.96-5.3,46.16-7.95,69.58-7.95c37.55,0,73.45,5.96,107.69,17.89
		c34.23,11.93,65.38,28.5,93.44,49.7c28.05,21.21,52.35,46.5,72.89,75.88c20.54,29.39,35.89,61.53,46.06,96.42h60.97V1725.79z
		 M2675.73,1725.79h-112.66c-25.18,0.89-48.6,6.86-70.24,17.89c-21.65,11.05-39.55,26.51-53.68,46.39h236.58V1725.79z"/>
	<path class="st0" d="M2986.56,1649.58c0-40.64,7.62-79.08,22.86-115.31c15.24-36.22,35.88-67.93,61.96-95.1
		c26.06-27.17,56.77-48.59,92.11-64.28c35.34-15.68,73.12-23.53,113.32-23.53h149.1v-314.11h156.39v314.11h60.97v157.72h-60.97
		v440.02h-305.5c-40.2,0-77.98-7.84-113.32-23.53c-35.35-15.68-66.05-37.11-92.11-64.28c-26.07-27.17-46.72-58.98-61.96-95.43
		C2994.18,1729.43,2986.56,1690.67,2986.56,1649.58z M3425.91,1790.07v-280.98h-148.75c-18.51,0.45-35.82,4.42-51.9,11.93
		c-16.09,7.52-30.08,17.56-41.98,30.15c-11.9,12.59-21.27,27.4-28.1,44.4c-6.83,17.01-10.24,35.02-10.24,54.01
		c0,19.45,3.52,37.77,10.57,55c7.05,17.23,16.76,32.14,29.1,44.73c12.34,12.59,26.67,22.53,42.97,29.82
		c16.31,7.29,33.5,10.93,51.57,10.93H3425.91z"/>
	<path class="st0" d="M3795.05,1949.11v-159.04l222-1.32c21.21,0,40.53-5.63,57.99-16.9c17.44-11.27,30.15-26.18,38.1-44.73h-377.73
		v-159.04h59.64c5.74-30.39,16.45-58.8,32.14-85.23c15.68-26.42,35.01-49.43,57.99-69.03c22.96-19.6,48.92-34.9,77.86-45.92
		c28.93-11.01,59.74-16.52,92.44-16.52h227.3v159.04h-229.95c-19.88,0.88-38.1,6.45-54.67,16.71
		c-16.57,10.26-29.27,23.91-38.1,40.94h370.44v159.04h-51.69c-5.31,31.37-15.91,60.53-31.81,87.48
		c-15.91,26.95-35.45,50.36-58.65,70.24c-23.2,19.88-49.37,35.57-78.53,47.05c-29.16,11.49-60.09,17.23-92.78,17.23H3795.05z"/>
</g>
</svg>
