<?xml version="1.0" encoding="utf-8"?>
<!-- Generator: Adobe Illustrator 24.1.1, SVG Export Plug-In . SVG Version: 6.00 Build 0)  -->
<svg version="1.1" id="Layer_1" xmlns="http://www.w3.org/2000/svg" xmlns:xlink="http://www.w3.org/1999/xlink" x="0px" y="0px"
	 viewBox="0 0 180 396" style="enable-background:new 0 0 180 396;" xml:space="preserve">
<style type="text/css">
	.st0{fill:#FFFFFF;}
</style>
<g>
	<g>
		<path class="st0" d="M133.82,69.7c-10.42-1.95-19.42-2.61-46.01-1.43c-17.72,0.78-29.72,2.08-37.8,3.91
			c-6.65,1.56-10.43,1.17-13.68-1.04c-6.65-4.56-6-6.78,1.3-6.13c1.56,0.13,4.43,0.13,11.99-0.26c19.29-1.04,61.52-5.34,68.42-6.52
			c8.73-1.56,14.6-0.65,20.59,2.74C146.33,65.4,145.29,71.91,133.82,69.7z M83.77,21.35c-17.2,2.48-21.11,1.69-26.2-1.56
			c-3.78-2.35-3.65-2.74,0.91-3.13c7.04-0.52,21.37-2.35,26.85-3.52c18.51-4.04,20.33-4.17,23.98-2.74
			c7.43,2.87,7.43,5.86,0.78,7.04C105.4,18.22,98.5,19.26,83.77,21.35z"/>
		<path class="st0" d="M81.94,179.17c0.39,1.17,0,2.21-4.56,3.91c-15.9,5.34-29.58,11.21-33.5,13.55
			c-3.65,2.08-4.82,1.96-11.47-3.13c-3.65-2.48-2.87-4.43,0.52-4.04c2.74,0.39,7.69,0,18.38-2.87c4.3-1.3,8.08-2.22,11.08-3
			c5.34-13.03,7.17-19.16,5.73-22.55c-1.17-2.74,0.13-4.04,4.43-1.95c6.78,3.52,6.78,5.6,4.17,7.82
			c-2.08,2.08-4.17,4.82-10.82,15.77C78.95,179.17,81.81,178.79,81.94,179.17z M53.14,163.01c-1.3,0.52-2.61-0.65-4.69-6.65
			c-4.04-11.86-5.47-14.47-7.56-16.55c-2.09-2.22-1.56-3.65,5.6-2.09v-0.13c7.43-1.43,16.55-3.78,20.07-6.13
			c2.87-1.83,4.69-1.96,8.99,0c7.82,3.65,7.95,5.86,5.47,7.56c-2.87,2.09-5.73,5.74-6.65,8.86c-0.26,1.17,0.39,1.96,2.09,3.52
			c1.82,1.43,1.17,3-1.3,3.26c-3.26,0.39-11.99,1.83-21.24,3.91C54.45,161.45,53.92,162.75,53.14,163.01z M68.52,112.06
			c4.69-1.95,9.12-2.08,11.34-0.52c2.61,1.69,2.48,2.61-1.3,4.69c-3,1.43-5.21,2.21-17.99,4.95c-5.73,1.17-10.69,0.78-16.03-1.17
			c-3.13-1.3-2.87-1.95,0.26-2.34C48.45,117.4,63.7,113.88,68.52,112.06z M46.89,166.79c8.6,4.43,9.9,8.34,8.99,12.64
			c-0.65,3.39-3,3.52-4.69,0.78c-2.22-2.87-4.82-8.47-6.26-12.12C44.28,165.88,44.67,165.75,46.89,166.79z M53.27,154.67
			c4.69-1.04,9.12-2.08,11.21-2.61c1.43-0.39,2.48-0.91,3.13-3.39c0.78-1.96,1.3-4.95,1.43-7.04c0.13-2.87-1.3-4.17-4.56-3.52
			c-5.73,1.04-10.43,2.22-14.08,3.26C51.58,145.81,52.36,149.72,53.27,154.67z M102.41,184.26c5.73,3,5.99,4.95,4.17,6.26
			c-1.3,1.04-6.26,5.87-7.04,6.52c-10.17,8.6-18.51,12.25-27.89,14.34c-2.09,0.52-2.74-1.43-0.65-2.61
			c10.04-5.08,17.99-10.69,23.59-16.94c2.48-2.74,3.52-5.21,3.39-6.52C97.58,182.82,98.5,182.3,102.41,184.26z M112.57,122.22
			c-1.69,1.17-3,2.48-10.56,11.73c7.95-1.44,16.68-3.65,19.29-4.69c2.87-1.3,5.08-1.3,10.82,1.96c5.08,2.87,5.21,4.04,3.39,6.91
			c-1.43,1.95-2.22,4.04-2.22,6c0,6,0.26,11.73,1.3,21.24c0.91,7.3-0.39,15.9-3.26,18.9c-1.7,1.57-2.35,1.57-4.56-4.3
			c-1.04-2.35-1.96-3-4.43-2.74c-7.43,0.78-17.47,1.95-26.98,3.65c-1.43,4.3-3.13,4.04-4.43,0.91c-1.57-3.26-1.83-6.25-1.3-9.9
			c1.04-7.43,1.04-12.38,0.39-25.41c-0.13-4.3-0.52-6.65-1.43-8.73c-1.56-3.65,0.13-5.6,5.48-2.74c1.04-0.13,2.09-0.26,3.13-0.26
			c5.6-8.34,7.95-14.34,7.43-18.51c-8.99,1.96-14.6,1.43-17.33,0c-1.95-0.91-1.95-1.82-0.52-1.96c8.6-1.04,23.2-4.17,36.49-7.56
			c6.13-1.69,8.47-1.69,12.38,0.13c3.65,1.69,3.52,4.3-2.21,5.08c-4.69,0.65-14.73,2.09-22.42,3.39
			C115.96,118.44,115.57,120.27,112.57,122.22z M117.66,146.07c2.48,1.3,2.09,2.74,0.13,3.13c-14.6,3.26-18.38,3.52-21.11,2.22
			c0,4.43,0,8.47,0,11.73c15.64-4.04,19.29-4.3,21.64-3.39c2.34,1.17,2.21,2.61-0.13,3.26c-4.95,1.69-14.6,3.13-21.63,3
			c0,4.69-0.13,8.34-0.39,10.43c5.86-0.52,11.6-1.43,18.25-2.87c5.74-1.3,7.04-1.3,8.73-0.13c1.7,1.04,2.74,0.39,3.26-3.91
			c0.78-7.95,0.26-19.03-1.3-28.8c-0.65-4.56-2.08-5.48-6.26-5.48c-2.87,0-10.29,1.04-22.29,3.13c0,3.78,0.13,7.17,0.13,10.56
			C111.79,144.77,115.18,144.9,117.66,146.07z M120.26,185.69c17.73,6.52,21.11,11.99,20.2,19.55c-0.52,4.04-2.34,4.69-4.95,1.82
			c-6.13-6.39-14.86-16.29-17.07-19.03C116.22,185.3,116.87,184.52,120.26,185.69z"/>
		<path class="st0" d="M73.34,250.73c-0.39,9.38-0.65,28.41-0.78,39.75c0,13.55-1.3,20.07-5.08,24.89
			c-1.83,2.61-2.87,2.61-4.43-0.92c-1.43-3.52-3.65-8.08-5.34-10.42c-1.96-2.34-1.96-3.78,0.91-2.48c5.73,2.61,6.91,1.82,7.17-3.52
			c0.91-11.34,1.83-46.14,1.83-59.95c0-4.56-1.43-5.34-3.78-4.69c-3.65,1.04-6.26,1.43-8.99,1.43c0.13,6.13,0,11.99-0.26,18.9
			c5.34-1.7,6.65-2.09,8.73-1.44c3,0.91,2.48,3.39-0.91,4.56c-3.13,0.91-5.34,1.17-7.95,0.91c-0.26,6.91-0.78,12.9-1.17,16.42
			c4.82-1.83,7.17-2.35,9.38-1.57c3.13,0.91,2.61,3.39-0.91,4.56c-3.39,1.04-6.13,1.17-8.86,0.65
			c-3.52,19.42-8.73,29.58-19.68,38.32c-3,2.35-4.43,0.91-1.3-2.74c6.91-8.73,14.08-22.03,15.9-44.05
			c1.69-19.68,0.26-33.23-1.3-35.97c-2.48-3.91-2.48-5.09,7.17-1.3c4.69-0.26,7.95-1.7,11.73-4.17c3.52-2.08,4.56-1.96,8.08,0.13
			c4.43,2.61,4.82,3.78,2.74,6.91C74.12,238.35,73.73,240.3,73.34,250.73z M120.26,307.42c-3.39-4.82-6-7.56-9.25-11.6
			c-5.47,6.65-9.9,8.47-19.94,11.08c-0.39,6.78-1.17,9.77-2.22,11.73c-1.04,1.83-3,1.83-4.3-3.26c-1.04-3.52-0.91-5.87,0.13-8.86
			c0.91-3.13,2.61-35.32,1.69-57.21c-0.52-14.47-0.78-16.94-2.08-19.03c-2.74-3.91-0.65-5.34,6.91-1.43
			c6.65-0.26,12.38-2.22,17.33-5.87c3.13-2.34,5.21-2.08,9.25,0.13c6.78,3.65,7.17,4.43,4.95,7.17c-3.13,3.52-3.91,4.95-5.08,10.29
			c-1.43,6.91-3.65,10.43-7.04,13.95c-1.56,1.69-3.91,1.17-4.69-0.26c-1.3-2.22-3.78-6.25-5.21-8.08c-1.56-1.96-1.3-2.61,1.3-1.7
			c5.34,1.7,6.91,0.91,7.3-0.52c1.3-4.43,2.09-8.21,2.35-11.99c0.13-2.87-0.52-3.26-2.48-2.87c-2.35,0.39-6.13,1.04-8.86,1.95
			c-2.74,0.91-5.99,1.3-8.47,1.05c0.26,10.42,0.26,21.63,0.13,34.01c12.77-3.26,16.55-4.82,19.03-6.52
			c2.74-1.69,4.43-1.17,8.99,0.91c5.86,2.74,6.65,4.56,4.56,7.17c-1.43,1.83-3.78,6.39-5.47,12.25c-1.17,4.17-3,8.21-4.82,11.21
			c7.04,8.21,16.03,14.07,33.23,18.64c3.13,0.78,3.39,2.74,0.26,3.13C127.69,315.76,125.74,315.24,120.26,307.42z M104.75,266.76
			c-7.3,2.21-10.56,2.08-12.77,1.3c0,9.51-0.26,18.38-0.39,26.2c-0.13,4.17-0.26,7.69-0.39,10.56c8.86-4.95,12.9-8.21,16.42-13.56
			c-8.34-11.47-10.3-13.55-12.25-14.73c-3.13-1.83-2.22-4.43,1.17-3.26c2.48,0.91,5.34,3,13.82,13.17
			c2.22-4.69,3.78-12.12,4.3-17.47C115.05,264.8,113.75,264.15,104.75,266.76z"/>
	</g>
	<g>
		<path class="st0" d="M71.43,357.76c-1.31,0-2.55-0.25-3.7-0.74c-1.16-0.5-2.17-1.17-3.03-2.03c-0.87-0.86-1.56-1.87-2.08-3.03
			c-0.52-1.16-0.81-2.4-0.86-3.72v-3.11h-1.8v-4.58h1.8v-8.11h4.6v8.11h6.8v4.58h-6.8v2.83c0,0.72,0.13,1.41,0.4,2.04
			c0.27,0.64,0.63,1.19,1.09,1.66c0.46,0.46,1,0.83,1.61,1.11c0.62,0.27,1.28,0.41,1.98,0.41V357.76z"/>
		<path class="st0" d="M100.89,348.77c-0.02,1.23-0.25,2.37-0.68,3.41c-0.43,1.04-1.02,1.96-1.79,2.76
			c-0.83,0.88-1.8,1.57-2.91,2.07c-1.11,0.5-2.32,0.75-3.62,0.75H85.4c-1.31-0.03-2.52-0.29-3.62-0.79c-1.1-0.5-2.07-1.18-2.91-2.03
			c-0.74-0.8-1.33-1.72-1.78-2.76c-0.45-1.04-0.67-2.17-0.67-3.41v-8.23h4.56v8.17c0,0.63,0.12,1.22,0.36,1.79
			c0.24,0.57,0.6,1.06,1.06,1.48c0.47,0.42,1.03,0.75,1.71,0.97c0.67,0.23,1.43,0.32,2.29,0.27v-12.68h4.56v12.68
			c0.82,0.05,1.55-0.04,2.2-0.27c0.65-0.23,1.21-0.55,1.67-0.97c0.46-0.42,0.81-0.91,1.07-1.48c0.25-0.57,0.37-1.16,0.37-1.79v-8.17
			h4.6V348.77z"/>
		<path class="st0" d="M115.48,339.45c1.31,0,2.55,0.25,3.72,0.76c1.17,0.51,2.18,1.21,3.04,2.09c0.86,0.88,1.54,1.92,2.05,3.1
			c0.5,1.18,0.75,2.45,0.75,3.8c0,1.36-0.25,2.63-0.75,3.82c-0.5,1.18-1.19,2.22-2.05,3.1c-0.86,0.88-1.87,1.58-3.04,2.09
			c-1.17,0.51-2.41,0.77-3.72,0.77c-1.33,0-2.57-0.25-3.73-0.77c-1.16-0.51-2.17-1.2-3.05-2.09c-0.87-0.88-1.56-1.92-2.07-3.1
			c-0.5-1.18-0.75-2.46-0.75-3.82c0-1.35,0.25-2.61,0.75-3.8c0.5-1.18,1.19-2.22,2.07-3.1c0.87-0.89,1.89-1.58,3.05-2.09
			C112.91,339.71,114.16,339.45,115.48,339.45z M115.46,344.03c-0.69,0-1.34,0.14-1.94,0.41c-0.61,0.27-1.14,0.64-1.59,1.11
			c-0.45,0.47-0.81,1.02-1.08,1.65c-0.27,0.63-0.4,1.3-0.4,2.01c0,0.72,0.13,1.4,0.4,2.03c0.27,0.64,0.63,1.18,1.08,1.65
			c0.45,0.46,0.98,0.83,1.59,1.1c0.6,0.27,1.25,0.41,1.94,0.41c0.69,0,1.33-0.14,1.94-0.41c0.6-0.27,1.14-0.64,1.6-1.1
			s0.82-1.01,1.08-1.65c0.26-0.63,0.39-1.31,0.39-2.03c0-0.71-0.13-1.38-0.39-2.01c-0.26-0.63-0.62-1.18-1.08-1.65
			c-0.46-0.47-0.99-0.84-1.6-1.11C116.8,344.17,116.15,344.03,115.46,344.03z"/>
		<path class="st0" d="M55.02,386.43h-4.56v-8.13c0-0.62-0.12-1.21-0.35-1.76c-0.24-0.55-0.56-1.02-0.97-1.42
			c-0.41-0.4-0.88-0.72-1.43-0.95c-0.54-0.24-1.13-0.36-1.75-0.37h-3.58v12.64h-4.56v-12.64h-1.76v-4.58h1.76v-8.11h4.56v8.11h3.57
			c1.2,0.01,2.33,0.24,3.39,0.68c1.06,0.44,2,1.04,2.82,1.79c0.81,0.76,1.48,1.65,1.99,2.68c0.51,1.03,0.8,2.14,0.88,3.34V386.43z"
			/>
		<path class="st0" d="M80.09,371.35c-0.05,1.22-0.32,2.36-0.81,3.43c-0.49,1.06-1.15,1.99-1.97,2.77c-0.82,0.78-1.77,1.4-2.85,1.84
			c-1.08,0.45-2.23,0.67-3.46,0.67h-1.87c0.41,0.57,0.92,1.02,1.53,1.35c0.61,0.32,1.3,0.49,2.06,0.49h5.65v4.54h-5.69
			c-1.02-0.01-1.99-0.18-2.9-0.51c-0.92-0.32-1.75-0.77-2.49-1.34c-0.74-0.57-1.39-1.24-1.94-2c-0.55-0.77-0.96-1.61-1.24-2.53
			h-1.72v-4.62h1.76v-1.64h-4.11v-4.58h20.05V371.35z M71,375.44c0.73,0,1.4-0.14,2.01-0.42c0.62-0.28,1.13-0.69,1.54-1.22h-5.86
			v1.64H71z"/>
		<path class="st0" d="M103.74,380h-1.75v6.43H85.12c-0.18-1.51-0.08-2.92,0.28-4.22c0.36-1.3,0.95-2.43,1.75-3.41
			c0.8-0.98,1.8-1.76,2.99-2.35c1.19-0.59,2.52-0.94,4-1.04h2.81c-0.43-0.69-1.02-1.25-1.75-1.68c-0.73-0.43-1.55-0.65-2.43-0.65
			c-0.74,0-1.43,0.17-2.07,0.51c-0.64,0.34-1.2,0.77-1.67,1.28l-3.28-3.21c0.41-0.47,0.87-0.9,1.4-1.3c0.53-0.39,1.1-0.73,1.71-1
			c0.61-0.27,1.25-0.49,1.91-0.64c0.66-0.15,1.33-0.23,2.01-0.23c1.08,0,2.12,0.17,3.1,0.52c0.99,0.34,1.88,0.82,2.69,1.43
			c0.81,0.61,1.51,1.34,2.1,2.19c0.59,0.85,1.04,1.77,1.33,2.78h1.75V380z M97.4,380h-3.25c-0.72,0.03-1.4,0.2-2.02,0.52
			c-0.62,0.32-1.14,0.76-1.55,1.34h6.82V380z"/>
		<path class="st0" d="M108.7,377.8c0-1.17,0.22-2.28,0.66-3.32c0.44-1.04,1.03-1.96,1.78-2.74c0.75-0.78,1.64-1.4,2.65-1.85
			c1.02-0.45,2.11-0.68,3.27-0.68h4.29v-9.05h4.51v9.05h1.76v4.54h-1.76v12.68h-8.8c-1.16,0-2.25-0.23-3.27-0.68
			c-1.02-0.45-1.9-1.07-2.65-1.85c-0.75-0.79-1.35-1.7-1.78-2.75C108.92,380.1,108.7,378.99,108.7,377.8z M121.36,381.85v-8.09
			h-4.28c-0.53,0.01-1.03,0.13-1.5,0.34c-0.46,0.22-0.87,0.51-1.21,0.87c-0.34,0.36-0.61,0.79-0.81,1.28
			c-0.2,0.49-0.29,1.01-0.29,1.56c0,0.56,0.1,1.09,0.3,1.58c0.2,0.5,0.48,0.93,0.84,1.29c0.35,0.36,0.77,0.65,1.24,0.86
			c0.47,0.21,0.97,0.32,1.49,0.32H121.36z"/>
		<path class="st0" d="M134.34,386.43v-4.58l6.39-0.04c0.61,0,1.17-0.16,1.67-0.49c0.5-0.32,0.87-0.75,1.1-1.29h-10.88v-4.58h1.72
			c0.17-0.88,0.47-1.69,0.93-2.46c0.45-0.76,1.01-1.42,1.67-1.99c0.66-0.56,1.41-1,2.24-1.32c0.83-0.32,1.72-0.48,2.66-0.48h6.55
			v4.58h-6.63c-0.57,0.03-1.1,0.19-1.58,0.48c-0.48,0.29-0.84,0.69-1.1,1.18h10.67v4.58h-1.49c-0.15,0.9-0.46,1.74-0.92,2.52
			c-0.46,0.78-1.02,1.45-1.69,2.02c-0.67,0.57-1.42,1.02-2.26,1.36c-0.84,0.33-1.73,0.5-2.67,0.5H134.34z"/>
	</g>
</g>
</svg>
