<?xml version="1.0" encoding="utf-8"?>
<!-- Generator: Adobe Illustrator 24.1.1, SVG Export Plug-In . SVG Version: 6.00 Build 0)  -->
<svg version="1.1" id="Capa_1" xmlns="http://www.w3.org/2000/svg" xmlns:xlink="http://www.w3.org/1999/xlink" x="0px" y="0px"
	 viewBox="0 0 1080 1080" style="enable-background:new 0 0 1080 1080;" xml:space="preserve">
<style type="text/css">
	.st0{fill:#020203;stroke:#020203;stroke-miterlimit:10;}
	.st1{fill:#FFFFFF;}
</style>
<rect class="st0" width="1080" height="1097.86"/>
<g>
	<g>
		<path class="st1" d="M627.21,284.62c-20.75-3.89-38.65-5.19-91.57-2.85c-35.28,1.56-59.15,4.15-75.23,7.78
			c-13.23,3.11-20.75,2.33-27.24-2.08c-13.23-9.08-11.93-13.49,2.59-12.19c3.11,0.26,8.82,0.26,23.87-0.52
			c38.39-2.07,122.45-10.64,136.19-12.97c17.38-3.11,29.06-1.3,40.99,5.45C652.12,276.06,650.04,289.03,627.21,284.62z
			 M527.6,188.38c-34.24,4.93-42.02,3.37-52.14-3.11c-7.52-4.67-7.26-5.45,1.82-6.23c14.01-1.04,42.54-4.67,53.44-7.01
			c36.84-8.04,40.47-8.3,47.73-5.45c14.79,5.71,14.79,11.67,1.56,14.01C570.66,182.15,556.91,184.23,527.6,188.38z"/>
		<path class="st1" d="M523.97,502.53c0.78,2.34,0,4.41-9.08,7.78c-31.65,10.63-58.89,22.31-66.67,26.98
			c-7.26,4.15-9.6,3.89-22.83-6.23c-7.27-4.93-5.71-8.82,1.04-8.04c5.45,0.78,15.3,0,36.58-5.71c8.56-2.59,16.08-4.41,22.05-5.97
			c10.63-25.94,14.27-38.13,11.41-44.88c-2.33-5.45,0.26-8.04,8.82-3.89c13.49,7,13.49,11.15,8.3,15.57
			c-4.15,4.15-8.3,9.6-21.53,31.39C518,502.53,523.71,501.75,523.97,502.53z M466.64,470.36c-2.59,1.04-5.19-1.3-9.34-13.23
			c-8.04-23.6-10.9-28.79-15.05-32.94c-4.15-4.41-3.11-7.27,11.15-4.15v-0.26c14.79-2.86,32.95-7.52,39.95-12.19
			c5.71-3.63,9.34-3.89,17.9,0c15.57,7.26,15.82,11.67,10.89,15.04c-5.71,4.15-11.41,11.42-13.23,17.64
			c-0.52,2.34,0.78,3.89,4.15,7.01c3.63,2.85,2.33,5.97-2.59,6.48c-6.49,0.78-23.87,3.63-42.29,7.78
			C469.23,467.25,468.19,469.84,466.64,470.36z M497.25,368.93c9.34-3.89,18.16-4.15,22.57-1.04c5.19,3.37,4.93,5.19-2.59,9.34
			c-5.97,2.85-10.38,4.41-35.8,9.86c-11.41,2.34-21.27,1.56-31.91-2.34c-6.22-2.59-5.71-3.89,0.52-4.67
			C457.3,379.57,487.65,372.57,497.25,368.93z M454.19,477.88c17.12,8.82,19.71,16.6,17.9,25.17c-1.3,6.74-5.97,7-9.34,1.56
			c-4.41-5.71-9.6-16.86-12.45-24.13C449,476.07,449.78,475.81,454.19,477.88z M466.9,453.76c9.34-2.07,18.16-4.15,22.31-5.19
			c2.85-0.78,4.93-1.82,6.23-6.74c1.55-3.89,2.59-9.86,2.85-14.01c0.26-5.71-2.6-8.3-9.08-7c-11.41,2.08-20.75,4.41-28.02,6.49
			C463.52,436.12,465.08,443.9,466.9,453.76z M564.7,512.65c11.41,5.97,11.93,9.86,8.3,12.45c-2.59,2.08-12.45,11.68-14.01,12.97
			c-20.24,17.12-36.84,24.38-55.52,28.54c-4.15,1.03-5.45-2.86-1.3-5.19c19.97-10.11,35.8-21.27,46.96-33.72
			c4.93-5.45,7-10.38,6.74-12.97C555.1,509.79,556.91,508.76,564.7,512.65z M584.93,389.17c-3.37,2.33-5.97,4.93-21.01,23.35
			c15.82-2.86,33.2-7.26,38.39-9.34c5.71-2.59,10.12-2.59,21.53,3.89c10.12,5.71,10.38,8.04,6.75,13.75
			c-2.85,3.89-4.41,8.04-4.41,11.93c0,11.93,0.52,23.35,2.6,42.28c1.81,14.53-0.78,31.65-6.49,37.62c-3.37,3.11-4.67,3.11-9.08-8.56
			c-2.08-4.67-3.89-5.97-8.82-5.45c-14.79,1.55-34.77,3.89-53.7,7.26c-2.86,8.56-6.23,8.04-8.82,1.81
			c-3.12-6.48-3.63-12.45-2.6-19.71c2.07-14.79,2.07-24.65,0.78-50.59c-0.26-8.56-1.04-13.23-2.85-17.38
			c-3.11-7.26,0.26-11.16,10.9-5.45c2.07-0.26,4.15-0.52,6.23-0.52c11.15-16.6,15.82-28.53,14.79-36.83
			c-17.9,3.89-29.06,2.85-34.5,0c-3.89-1.82-3.89-3.63-1.04-3.89c17.12-2.08,46.18-8.3,72.64-15.05
			c12.19-3.37,16.86-3.37,24.65,0.26c7.26,3.37,7,8.56-4.41,10.12c-9.34,1.3-29.32,4.15-44.62,6.74
			C591.68,381.64,590.9,385.28,584.93,389.17z M595.05,436.64c4.93,2.59,4.15,5.45,0.26,6.23c-29.06,6.48-36.58,7-42.03,4.41
			c0,8.82,0,16.86,0,23.35c31.13-8.04,38.39-8.56,43.06-6.75c4.67,2.33,4.41,5.19-0.26,6.49c-9.86,3.37-29.05,6.23-43.06,5.97
			c0,9.33-0.26,16.6-0.78,20.75c11.67-1.04,23.09-2.85,36.32-5.71c11.42-2.59,14.01-2.59,17.38-0.26c3.37,2.07,5.45,0.78,6.49-7.78
			c1.56-15.82,0.52-37.87-2.6-57.33c-1.29-9.08-4.15-10.9-12.45-10.9c-5.71,0-20.49,2.08-44.36,6.23c0,7.52,0.26,14.27,0.26,21.01
			C583.37,434.05,590.12,434.3,595.05,436.64z M600.24,515.5c35.28,12.97,42.02,23.87,40.21,38.91c-1.04,8.04-4.67,9.34-9.86,3.63
			c-12.19-12.71-29.57-32.43-33.98-37.87C592.19,514.72,593.49,513.17,600.24,515.5z"/>
		<path class="st1" d="M506.84,644.95c-0.78,18.68-1.3,56.55-1.56,79.12c0,26.98-2.59,39.95-10.12,49.55
			c-3.63,5.19-5.71,5.19-8.82-1.82c-2.85-7-7.26-16.08-10.64-20.75c-3.89-4.67-3.89-7.52,1.82-4.93
			c11.41,5.19,13.75,3.63,14.27-7.01c1.82-22.57,3.63-91.83,3.63-119.33c0-9.08-2.85-10.63-7.52-9.34
			c-7.26,2.07-12.45,2.85-17.9,2.85c0.26,12.19,0,23.87-0.52,37.62c10.63-3.38,13.23-4.15,17.38-2.86c5.97,1.82,4.93,6.75-1.82,9.08
			c-6.22,1.82-10.63,2.34-15.82,1.82c-0.52,13.75-1.56,25.68-2.34,32.69c9.6-3.63,14.27-4.67,18.68-3.12
			c6.23,1.82,5.19,6.75-1.82,9.08c-6.75,2.08-12.19,2.34-17.64,1.3c-7,38.65-17.38,58.88-39.17,76.27
			c-5.97,4.67-8.82,1.82-2.59-5.45c13.75-17.38,28.02-43.84,31.65-87.68c3.37-39.17,0.52-66.15-2.6-71.6
			c-4.93-7.78-4.93-10.12,14.27-2.59c9.34-0.52,15.82-3.37,23.35-8.3c7-4.15,9.08-3.89,16.09,0.26c8.82,5.19,9.6,7.52,5.45,13.75
			C508.4,620.3,507.62,624.2,506.84,644.95z M600.24,757.79c-6.75-9.6-11.93-15.04-18.42-23.09
			c-10.89,13.23-19.71,16.86-39.69,22.06c-0.78,13.49-2.34,19.45-4.41,23.35c-2.07,3.63-5.97,3.63-8.56-6.48
			c-2.07-7.01-1.82-11.67,0.26-17.64c1.82-6.23,5.19-70.3,3.37-113.88c-1.04-28.8-1.55-33.72-4.15-37.87
			c-5.45-7.78-1.3-10.64,13.75-2.85c13.23-0.52,24.64-4.41,34.5-11.67c6.22-4.67,10.37-4.15,18.42,0.26
			c13.49,7.27,14.26,8.82,9.86,14.27c-6.23,7-7.78,9.86-10.12,20.49c-2.85,13.75-7.26,20.76-14.01,27.76
			c-3.11,3.37-7.78,2.34-9.33-0.52c-2.6-4.41-7.52-12.45-10.38-16.08c-3.11-3.89-2.59-5.19,2.6-3.37
			c10.63,3.37,13.75,1.82,14.53-1.04c2.59-8.82,4.15-16.34,4.67-23.87c0.26-5.71-1.04-6.48-4.93-5.71
			c-4.67,0.78-12.19,2.07-17.64,3.89c-5.45,1.82-11.93,2.6-16.86,2.08c0.52,20.75,0.52,43.06,0.26,67.7
			c25.42-6.49,32.95-9.6,37.87-12.98c5.45-3.37,8.82-2.33,17.9,1.82c11.67,5.45,13.23,9.08,9.08,14.27
			c-2.86,3.63-7.53,12.71-10.9,24.39c-2.33,8.3-5.96,16.34-9.6,22.31c14.01,16.34,31.91,28.01,66.15,37.1
			c6.23,1.55,6.75,5.45,0.52,6.22C615.02,774.4,611.13,773.36,600.24,757.79z M569.36,676.86c-14.53,4.41-21.01,4.15-25.42,2.6
			c0,18.94-0.52,36.58-0.78,52.14c-0.26,8.3-0.52,15.3-0.78,21.01c17.64-9.86,25.68-16.34,32.69-26.98
			c-16.61-22.82-20.5-26.97-24.38-29.31c-6.23-3.63-4.41-8.82,2.33-6.49c4.93,1.82,10.64,5.97,27.5,26.21
			c4.41-9.34,7.52-24.13,8.56-34.77C589.86,672.96,587.26,671.67,569.36,676.86z"/>
	</g>
	<path class="st1" d="M503.03,857.99c-2.61,0-5.07-0.49-7.37-1.48c-2.31-0.99-4.32-2.34-6.04-4.05c-1.72-1.71-3.1-3.72-4.14-6.02
		c-1.04-2.31-1.61-4.77-1.71-7.41v-6.19h-3.57v-9.12h3.57v-16.15h9.16v16.15h13.53v9.12h-13.53v5.64c0,1.44,0.27,2.8,0.8,4.07
		c0.53,1.27,1.25,2.37,2.17,3.3c0.91,0.92,1.98,1.66,3.21,2.21c1.23,0.55,2.54,0.82,3.93,0.82V857.99z"/>
	<path class="st1" d="M562.74,840.09c-0.05,2.46-0.5,4.72-1.35,6.78c-0.85,2.07-2.03,3.89-3.55,5.49c-1.64,1.75-3.58,3.12-5.79,4.12
		c-2.22,1-4.62,1.5-7.2,1.5h-12.92c-2.61-0.05-5.01-0.58-7.2-1.58c-2.19-1-4.13-2.35-5.8-4.05c-1.47-1.6-2.65-3.42-3.53-5.49
		c-0.89-2.06-1.33-4.33-1.33-6.78v-16.38h9.08v16.27c0,1.24,0.24,2.43,0.72,3.55c0.49,1.13,1.19,2.11,2.12,2.94
		c0.93,0.84,2.06,1.49,3.4,1.94c1.33,0.45,2.85,0.63,4.56,0.53v-25.23h9.09v25.23c1.63,0.1,3.09-0.08,4.38-0.53
		c1.3-0.45,2.4-1.1,3.32-1.94c0.92-0.83,1.62-1.81,2.12-2.94c0.49-1.13,0.74-2.31,0.74-3.55v-16.27h9.16V840.09z"/>
	<path class="st1" d="M588.57,821.55c2.61,0,5.08,0.51,7.4,1.52c2.32,1.01,4.34,2.4,6.05,4.16c1.71,1.76,3.07,3.82,4.07,6.17
		c1,2.36,1.5,4.88,1.5,7.56c0,2.71-0.5,5.24-1.5,7.6c-1,2.36-2.36,4.42-4.07,6.18c-1.71,1.76-3.72,3.15-6.05,4.16
		c-2.32,1.02-4.79,1.52-7.4,1.52c-2.64,0-5.11-0.51-7.42-1.52c-2.31-1.01-4.33-2.4-6.06-4.16c-1.74-1.76-3.11-3.82-4.11-6.18
		c-1-2.36-1.5-4.89-1.5-7.6c0-2.68,0.5-5.2,1.5-7.56c1-2.36,2.37-4.41,4.11-6.17c1.74-1.76,3.76-3.15,6.06-4.16
		C583.46,822.06,585.93,821.55,588.57,821.55z M588.53,830.67c-1.37,0-2.66,0.27-3.87,0.81c-1.21,0.54-2.26,1.28-3.16,2.21
		c-0.9,0.94-1.62,2.03-2.15,3.28c-0.53,1.25-0.8,2.58-0.8,3.99c0,1.44,0.27,2.79,0.8,4.05c0.53,1.27,1.25,2.36,2.15,3.28
		c0.9,0.92,1.96,1.65,3.16,2.2c1.2,0.54,2.49,0.81,3.87,0.81c1.37,0,2.66-0.27,3.86-0.81c1.2-0.55,2.26-1.28,3.18-2.2
		c0.91-0.92,1.63-2.01,2.15-3.28c0.52-1.26,0.78-2.61,0.78-4.05c0-1.41-0.26-2.75-0.78-3.99c-0.52-1.25-1.24-2.34-2.15-3.28
		c-0.91-0.93-1.98-1.67-3.18-2.21C591.19,830.94,589.9,830.67,588.53,830.67z"/>
	<path class="st1" d="M470.38,915.06h-9.08v-16.19c0-1.24-0.23-2.41-0.7-3.5c-0.47-1.09-1.11-2.03-1.92-2.83
		c-0.81-0.8-1.76-1.43-2.84-1.9c-1.08-0.47-2.24-0.72-3.48-0.74h-7.12v25.16h-9.08v-25.16h-3.5v-9.12h3.5v-16.15h9.08v16.15h7.11
		c2.38,0.03,4.63,0.48,6.74,1.35c2.11,0.88,3.98,2.06,5.6,3.57c1.62,1.51,2.94,3.28,3.95,5.34c1.01,2.05,1.6,4.26,1.75,6.65V915.06z
		"/>
	<path class="st1" d="M520.27,885.04c-0.1,2.43-0.64,4.71-1.61,6.82c-0.98,2.12-2.28,3.95-3.91,5.51c-1.63,1.56-3.53,2.78-5.68,3.66
		c-2.15,0.89-4.44,1.33-6.88,1.33h-3.72c0.81,1.14,1.82,2.03,3.04,2.68c1.22,0.64,2.58,0.97,4.1,0.97h11.25v9.04h-11.32
		c-2.03-0.03-3.95-0.36-5.78-1.01c-1.82-0.65-3.48-1.53-4.96-2.66c-1.48-1.13-2.77-2.46-3.86-3.99c-1.09-1.53-1.91-3.21-2.47-5.03
		h-3.42v-9.2h3.5v-3.27h-8.17v-9.12h39.9V885.04z M502.18,893.17c1.44,0,2.78-0.28,4.01-0.84c1.23-0.56,2.25-1.37,3.06-2.42h-11.67
		v3.27H502.18z"/>
	<path class="st1" d="M567.35,902.25h-3.49v12.81H530.3c-0.35-3.01-0.17-5.82,0.55-8.4c0.72-2.58,1.88-4.85,3.48-6.78
		c1.59-1.94,3.58-3.5,5.95-4.67c2.37-1.18,5.02-1.87,7.96-2.07h5.59c-0.86-1.37-2.02-2.48-3.48-3.34c-1.46-0.86-3.08-1.29-4.85-1.29
		c-1.47,0-2.84,0.34-4.12,1.02c-1.28,0.68-2.39,1.53-3.33,2.55l-6.54-6.39c0.81-0.93,1.74-1.8,2.79-2.58
		c1.05-0.79,2.18-1.45,3.4-1.99c1.22-0.55,2.48-0.97,3.8-1.28c1.32-0.3,2.65-0.45,3.99-0.45c2.15,0,4.21,0.34,6.17,1.03
		c1.96,0.68,3.75,1.63,5.36,2.85c1.61,1.21,3,2.67,4.18,4.35c1.18,1.68,2.06,3.53,2.64,5.53h3.49V902.25z M554.73,902.25h-6.46
		c-1.44,0.05-2.79,0.39-4.03,1.03c-1.24,0.63-2.27,1.52-3.08,2.66h13.57V902.25z"/>
	<path class="st1" d="M577.23,897.88c0-2.33,0.44-4.53,1.31-6.61c0.87-2.08,2.06-3.89,3.55-5.45c1.49-1.55,3.26-2.78,5.28-3.68
		c2.03-0.9,4.19-1.35,6.5-1.35h8.55v-18.01h8.97v18.01h3.5v9.05h-3.5v25.23h-17.52c-2.3,0-4.47-0.45-6.5-1.35
		c-2.03-0.9-3.79-2.13-5.28-3.69c-1.49-1.56-2.68-3.38-3.55-5.47C577.66,902.46,577.23,900.24,577.23,897.88z M602.42,905.94v-16.11
		h-8.53c-1.06,0.02-2.06,0.25-2.98,0.68c-0.93,0.43-1.73,1.01-2.41,1.73c-0.68,0.72-1.22,1.57-1.61,2.54
		c-0.39,0.98-0.59,2.01-0.59,3.1c0,1.12,0.2,2.17,0.61,3.15c0.41,0.99,0.96,1.85,1.67,2.56c0.7,0.72,1.53,1.29,2.46,1.71
		c0.94,0.42,1.92,0.63,2.96,0.63H602.42z"/>
	<path class="st1" d="M628.26,915.06v-9.12l12.73-0.08c1.22,0,2.33-0.32,3.33-0.97c1-0.64,1.73-1.5,2.19-2.57h-21.66v-9.12h3.42
		c0.33-1.74,0.94-3.37,1.84-4.89c0.9-1.52,2.01-2.84,3.33-3.96c1.31-1.12,2.8-2,4.47-2.63c1.66-0.63,3.42-0.95,5.3-0.95h13.04v9.12
		h-13.19c-1.14,0.05-2.19,0.37-3.14,0.96c-0.95,0.59-1.68,1.37-2.18,2.35h21.24v9.12H656c-0.31,1.8-0.91,3.47-1.83,5.02
		c-0.91,1.55-2.03,2.89-3.37,4.03c-1.33,1.14-2.83,2.04-4.5,2.7c-1.67,0.66-3.45,0.99-5.32,0.99H628.26z"/>
</g>
</svg>
