<svg version="1.1" id="Layer_1" xmlns="http://www.w3.org/2000/svg" x="0" y="0" viewBox="0 0 180 396" xml:space="preserve"><style>.st0{fill:#020202}</style><path class="st0" d="M133.82 69.7c-10.42-1.95-19.42-2.61-46.01-1.43-17.72.78-29.72 2.08-37.8 3.91-6.65 1.56-10.43 1.17-13.68-1.04-6.65-4.56-6-6.78 1.3-6.13 1.56.13 4.43.13 11.99-.26 19.29-1.04 61.52-5.34 68.42-6.52 8.73-1.56 14.6-.65 20.59 2.74 7.7 4.43 6.66 10.94-4.81 8.73zM83.77 21.35c-17.2 2.48-21.11 1.69-26.2-1.56-3.78-2.35-3.65-2.74.91-3.13 7.04-.52 21.37-2.35 26.85-3.52 18.51-4.04 20.33-4.17 23.98-2.74 7.43 2.87 7.43 5.86.78 7.04-4.69.78-11.59 1.82-26.32 3.91zM81.94 179.17c.39 1.17 0 2.21-4.56 3.91-15.9 5.34-29.58 11.21-33.5 13.55-3.65 2.08-4.82 1.96-11.47-3.13-3.65-2.48-2.87-4.43.52-4.04 2.74.39 7.69 0 18.38-2.87 4.3-1.3 8.08-2.22 11.08-3 5.34-13.03 7.17-19.16 5.73-22.55-1.17-2.74.13-4.04 4.43-1.95 6.78 3.52 6.78 5.6 4.17 7.82-2.08 2.08-4.17 4.82-10.82 15.77 13.05-3.51 15.91-3.89 16.04-3.51zm-28.8-16.16c-1.3.52-2.61-.65-4.69-6.65-4.04-11.86-5.47-14.47-7.56-16.55-2.09-2.22-1.56-3.65 5.6-2.09v-.13c7.43-1.43 16.55-3.78 20.07-6.13 2.87-1.83 4.69-1.96 8.99 0 7.82 3.65 7.95 5.86 5.47 7.56-2.87 2.09-5.73 5.74-6.65 8.86-.26 1.17.39 1.96 2.09 3.52 1.82 1.43 1.17 3-1.3 3.26-3.26.39-11.99 1.83-21.24 3.91.53 2.88 0 4.18-.78 4.44zm15.38-50.95c4.69-1.95 9.12-2.08 11.34-.52 2.61 1.69 2.48 2.61-1.3 4.69-3 1.43-5.21 2.21-17.99 4.95-5.73 1.17-10.69.78-16.03-1.17-3.13-1.3-2.87-1.95.26-2.34 3.65-.27 18.9-3.79 23.72-5.61zm-21.63 54.73c8.6 4.43 9.9 8.34 8.99 12.64-.65 3.39-3 3.52-4.69.78-2.22-2.87-4.82-8.47-6.26-12.12-.65-2.21-.26-2.34 1.96-1.3zm6.38-12.12c4.69-1.04 9.12-2.08 11.21-2.61 1.43-.39 2.48-.91 3.13-3.39.78-1.96 1.3-4.95 1.43-7.04.13-2.87-1.3-4.17-4.56-3.52-5.73 1.04-10.43 2.22-14.08 3.26 1.18 4.44 1.96 8.35 2.87 13.3zm49.14 29.59c5.73 3 5.99 4.95 4.17 6.26-1.3 1.04-6.26 5.87-7.04 6.52-10.17 8.6-18.51 12.25-27.89 14.34-2.09.52-2.74-1.43-.65-2.61 10.04-5.08 17.99-10.69 23.59-16.94 2.48-2.74 3.52-5.21 3.39-6.52-.4-2.49.52-3.01 4.43-1.05zm10.16-62.04c-1.69 1.17-3 2.48-10.56 11.73 7.95-1.44 16.68-3.65 19.29-4.69 2.87-1.3 5.08-1.3 10.82 1.96 5.08 2.87 5.21 4.04 3.39 6.91-1.43 1.95-2.22 4.04-2.22 6 0 6 .26 11.73 1.3 21.24.91 7.3-.39 15.9-3.26 18.9-1.7 1.57-2.35 1.57-4.56-4.3-1.04-2.35-1.96-3-4.43-2.74-7.43.78-17.47 1.95-26.98 3.65-1.43 4.3-3.13 4.04-4.43.91-1.57-3.26-1.83-6.25-1.3-9.9 1.04-7.43 1.04-12.38.39-25.41-.13-4.3-.52-6.65-1.43-8.73-1.56-3.65.13-5.6 5.48-2.74 1.04-.13 2.09-.26 3.13-.26 5.6-8.34 7.95-14.34 7.43-18.51-8.99 1.96-14.6 1.43-17.33 0-1.95-.91-1.95-1.82-.52-1.96 8.6-1.04 23.2-4.17 36.49-7.56 6.13-1.69 8.47-1.69 12.38.13 3.65 1.69 3.52 4.3-2.21 5.08-4.69.65-14.73 2.09-22.42 3.39 4.94 3.12 4.55 4.95 1.55 6.9zm5.09 23.85c2.48 1.3 2.09 2.74.13 3.13-14.6 3.26-18.38 3.52-21.11 2.22v11.73c15.64-4.04 19.29-4.3 21.64-3.39 2.34 1.17 2.21 2.61-.13 3.26-4.95 1.69-14.6 3.13-21.63 3 0 4.69-.13 8.34-.39 10.43 5.86-.52 11.6-1.43 18.25-2.87 5.74-1.3 7.04-1.3 8.73-.13 1.7 1.04 2.74.39 3.26-3.91.78-7.95.26-19.03-1.3-28.8-.65-4.56-2.08-5.48-6.26-5.48-2.87 0-10.29 1.04-22.29 3.13 0 3.78.13 7.17.13 10.56 15.1-4.18 18.49-4.05 20.97-2.88zm2.6 39.62c17.73 6.52 21.11 11.99 20.2 19.55-.52 4.04-2.34 4.69-4.95 1.82-6.13-6.39-14.86-16.29-17.07-19.03-2.22-2.73-1.57-3.51 1.82-2.34zM73.34 250.73c-.39 9.38-.65 28.41-.78 39.75 0 13.55-1.3 20.07-5.08 24.89-1.83 2.61-2.87 2.61-4.43-.92-1.43-3.52-3.65-8.08-5.34-10.42-1.96-2.34-1.96-3.78.91-2.48 5.73 2.61 6.91 1.82 7.17-3.52.91-11.34 1.83-46.14 1.83-59.95 0-4.56-1.43-5.34-3.78-4.69-3.65 1.04-6.26 1.43-8.99 1.43.13 6.13 0 11.99-.26 18.9 5.34-1.7 6.65-2.09 8.73-1.44 3 .91 2.48 3.39-.91 4.56-3.13.91-5.34 1.17-7.95.91-.26 6.91-.78 12.9-1.17 16.42 4.82-1.83 7.17-2.35 9.38-1.57 3.13.91 2.61 3.39-.91 4.56-3.39 1.04-6.13 1.17-8.86.65-3.52 19.42-8.73 29.58-19.68 38.32-3 2.35-4.43.91-1.3-2.74 6.91-8.73 14.08-22.03 15.9-44.05 1.69-19.68.26-33.23-1.3-35.97-2.48-3.91-2.48-5.09 7.17-1.3 4.69-.26 7.95-1.7 11.73-4.17 3.52-2.08 4.56-1.96 8.08.13 4.43 2.61 4.82 3.78 2.74 6.91-2.12 3.41-2.51 5.36-2.9 15.79zm46.92 56.69c-3.39-4.82-6-7.56-9.25-11.6-5.47 6.65-9.9 8.47-19.94 11.08-.39 6.78-1.17 9.77-2.22 11.73-1.04 1.83-3 1.83-4.3-3.26-1.04-3.52-.91-5.87.13-8.86.91-3.13 2.61-35.32 1.69-57.21-.52-14.47-.78-16.94-2.08-19.03-2.74-3.91-.65-5.34 6.91-1.43 6.65-.26 12.38-2.22 17.33-5.87 3.13-2.34 5.21-2.08 9.25.13 6.78 3.65 7.17 4.43 4.95 7.17-3.13 3.52-3.91 4.95-5.08 10.29-1.43 6.91-3.65 10.43-7.04 13.95-1.56 1.69-3.91 1.17-4.69-.26-1.3-2.22-3.78-6.25-5.21-8.08-1.56-1.96-1.3-2.61 1.3-1.7 5.34 1.7 6.91.91 7.3-.52 1.3-4.43 2.09-8.21 2.35-11.99.13-2.87-.52-3.26-2.48-2.87-2.35.39-6.13 1.04-8.86 1.95-2.74.91-5.99 1.3-8.47 1.05.26 10.42.26 21.63.13 34.01 12.77-3.26 16.55-4.82 19.03-6.52 2.74-1.69 4.43-1.17 8.99.91 5.86 2.74 6.65 4.56 4.56 7.17-1.43 1.83-3.78 6.39-5.47 12.25-1.17 4.17-3 8.21-4.82 11.21 7.04 8.21 16.03 14.07 33.23 18.64 3.13.78 3.39 2.74.26 3.13-20.07 2.87-22.02 2.35-27.5-5.47zm-15.51-40.66c-7.3 2.21-10.56 2.08-12.77 1.3 0 9.51-.26 18.38-.39 26.2-.13 4.17-.26 7.69-.39 10.56 8.86-4.95 12.9-8.21 16.42-13.56-8.34-11.47-10.3-13.55-12.25-14.73-3.13-1.83-2.22-4.43 1.17-3.26 2.48.91 5.34 3 13.82 13.17 2.22-4.69 3.78-12.12 4.3-17.47.39-4.17-.91-4.82-9.91-2.21z"/><g><path class="st0" d="M71.43 357.76c-1.31 0-2.55-.25-3.7-.74a9.6 9.6 0 01-3.03-2.03 9.908 9.908 0 01-2.08-3.03 9.93 9.93 0 01-.86-3.72v-3.11h-1.8v-4.58h1.8v-8.11h4.6v8.11h6.8v4.58h-6.8v2.83c0 .72.13 1.41.4 2.04.27.64.63 1.19 1.09 1.66.46.46 1 .83 1.61 1.11.62.27 1.28.41 1.98.41v4.58zM100.89 348.77c-.02 1.23-.25 2.37-.68 3.41a8.752 8.752 0 01-1.79 2.76c-.83.88-1.8 1.57-2.91 2.07-1.11.5-2.32.75-3.62.75H85.4c-1.31-.03-2.52-.29-3.62-.79a9.71 9.71 0 01-2.91-2.03c-.74-.8-1.33-1.72-1.78-2.76-.45-1.04-.67-2.17-.67-3.41v-8.23h4.56v8.17c0 .63.12 1.22.36 1.79.24.57.6 1.06 1.06 1.48.47.42 1.03.75 1.71.97.67.23 1.43.32 2.29.27v-12.68h4.56v12.68c.82.05 1.55-.04 2.2-.27.65-.23 1.21-.55 1.67-.97.46-.42.81-.91 1.07-1.48.25-.57.37-1.16.37-1.79v-8.17h4.6v8.23zM115.48 339.45c1.31 0 2.55.25 3.72.76a9.53 9.53 0 013.04 2.09c.86.88 1.54 1.92 2.05 3.1.5 1.18.75 2.45.75 3.8 0 1.36-.25 2.63-.75 3.82a9.972 9.972 0 01-2.05 3.1 9.53 9.53 0 01-3.04 2.09c-1.17.51-2.41.77-3.72.77-1.33 0-2.57-.25-3.73-.77a9.748 9.748 0 01-3.05-2.09c-.87-.88-1.56-1.92-2.07-3.1-.5-1.18-.75-2.46-.75-3.82 0-1.35.25-2.61.75-3.8.5-1.18 1.19-2.22 2.07-3.1.87-.89 1.89-1.58 3.05-2.09 1.16-.5 2.41-.76 3.73-.76zm-.02 4.58c-.69 0-1.34.14-1.94.41-.61.27-1.14.64-1.59 1.11-.45.47-.81 1.02-1.08 1.65-.27.63-.4 1.3-.4 2.01 0 .72.13 1.4.4 2.03.27.64.63 1.18 1.08 1.65.45.46.98.83 1.59 1.1.6.27 1.25.41 1.94.41s1.33-.14 1.94-.41c.6-.27 1.14-.64 1.6-1.1s.82-1.01 1.08-1.65c.26-.63.39-1.31.39-2.03a5.217 5.217 0 00-1.47-3.66c-.46-.47-.99-.84-1.6-1.11-.6-.27-1.25-.41-1.94-.41zM55.02 386.43h-4.56v-8.13c0-.62-.12-1.21-.35-1.76-.24-.55-.56-1.02-.97-1.42-.41-.4-.88-.72-1.43-.95a4.46 4.46 0 00-1.75-.37h-3.58v12.64h-4.56V373.8h-1.76v-4.58h1.76v-8.11h4.56v8.11h3.57c1.2.01 2.33.24 3.39.68a9.6 9.6 0 012.82 1.79c.81.76 1.48 1.65 1.99 2.68.51 1.03.8 2.14.88 3.34v8.72zM80.09 371.35a9.034 9.034 0 01-2.78 6.2 9.07 9.07 0 01-2.85 1.84 8.89 8.89 0 01-3.46.67h-1.87c.41.57.92 1.02 1.53 1.35.61.32 1.3.49 2.06.49h5.65v4.54h-5.69a8.708 8.708 0 01-2.9-.51c-.92-.32-1.75-.77-2.49-1.34a9.683 9.683 0 01-1.94-2c-.55-.77-.96-1.61-1.24-2.53h-1.72v-4.62h1.76v-1.64h-4.11v-4.58h20.05v2.13zM71 375.44c.73 0 1.4-.14 2.01-.42.62-.28 1.13-.69 1.54-1.22h-5.86v1.64H71zM103.74 380h-1.75v6.43H85.12c-.18-1.51-.08-2.92.28-4.22.36-1.3.95-2.43 1.75-3.41s1.8-1.76 2.99-2.35c1.19-.59 2.52-.94 4-1.04h2.81a5.036 5.036 0 00-1.75-1.68c-.73-.43-1.55-.65-2.43-.65-.74 0-1.43.17-2.07.51-.64.34-1.2.77-1.67 1.28l-3.28-3.21c.41-.47.87-.9 1.4-1.3.53-.39 1.1-.73 1.71-1 .61-.27 1.25-.49 1.91-.64.66-.15 1.33-.23 2.01-.23 1.08 0 2.12.17 3.1.52.99.34 1.88.82 2.69 1.43s1.51 1.34 2.1 2.19c.59.85 1.04 1.77 1.33 2.78h1.75V380zm-6.34 0h-3.25c-.72.03-1.4.2-2.02.52-.62.32-1.14.76-1.55 1.34h6.82V380zM108.7 377.8c0-1.17.22-2.28.66-3.32a8.935 8.935 0 011.78-2.74 8.38 8.38 0 012.65-1.85c1.02-.45 2.11-.68 3.27-.68h4.29v-9.05h4.51v9.05h1.76v4.54h-1.76v12.68h-8.8c-1.16 0-2.25-.23-3.27-.68a8.269 8.269 0 01-2.65-1.85c-.75-.79-1.35-1.7-1.78-2.75a8.556 8.556 0 01-.66-3.35zm12.66 4.05v-8.09h-4.28c-.53.01-1.03.13-1.5.34-.46.22-.87.51-1.21.87a4.106 4.106 0 00-1.1 2.84c0 .56.1 1.09.3 1.58.2.5.48.93.84 1.29.35.36.77.65 1.24.86.47.21.97.32 1.49.32h4.22zM134.34 386.43v-4.58l6.39-.04c.61 0 1.17-.16 1.67-.49.5-.32.87-.75 1.1-1.29h-10.88v-4.58h1.72c.17-.88.47-1.69.93-2.46.45-.76 1.01-1.42 1.67-1.99.66-.56 1.41-1 2.24-1.32.83-.32 1.72-.48 2.66-.48h6.55v4.58h-6.63c-.57.03-1.1.19-1.58.48s-.84.69-1.1 1.18h10.67v4.58h-1.49c-.15.9-.46 1.74-.92 2.52s-1.02 1.45-1.69 2.02c-.67.57-1.42 1.02-2.26 1.36-.84.33-1.73.5-2.67.5h-6.38z"/></g></svg>